<?xml version="1.0" encoding="UTF-8" standalone="no"?>
<svg
   xmlns:dc="http://purl.org/dc/elements/1.1/"
   xmlns:cc="http://creativecommons.org/ns#"
   xmlns:rdf="http://www.w3.org/1999/02/22-rdf-syntax-ns#"
   xmlns:svg="http://www.w3.org/2000/svg"
   xmlns="http://www.w3.org/2000/svg"
   xmlns:sodipodi="http://sodipodi.sourceforge.net/DTD/sodipodi-0.dtd"
   xmlns:inkscape="http://www.inkscape.org/namespaces/inkscape"
   width="40.236965mm"
   height="66.444809mm"
   viewBox="0 0 40.236964 66.444809"
   version="1.1"
   id="svg8"
   inkscape:version="1.0 (4035a4fb49, 2020-05-01)"
   sodipodi:docname="gladiator.svg">
  <defs
     id="defs2" />
  <sodipodi:namedview
     id="base"
     pagecolor="#ffffff"
     bordercolor="#666666"
     borderopacity="1.0"
     inkscape:pageopacity="0.0"
     inkscape:pageshadow="2"
     inkscape:zoom="1.693051"
     inkscape:cx="66.531627"
     inkscape:cy="175.42756"
     inkscape:document-units="mm"
     inkscape:current-layer="layer1"
     inkscape:document-rotation="0"
     showgrid="false"
     fit-margin-top="0"
     fit-margin-left="0"
     fit-margin-right="0"
     fit-margin-bottom="0"
     inkscape:window-width="1920"
     inkscape:window-height="1013"
     inkscape:window-x="-9"
     inkscape:window-y="-9"
     inkscape:window-maximized="1" />
  <metadata
     id="metadata5">
    <rdf:RDF>
      <cc:Work
         rdf:about="">
        <dc:format>image/svg+xml</dc:format>
        <dc:type
           rdf:resource="http://purl.org/dc/dcmitype/StillImage" />
        <dc:title></dc:title>
      </cc:Work>
    </rdf:RDF>
  </metadata>
  <g
     inkscape:label="Layer 1"
     inkscape:groupmode="layer"
     id="layer1"
     transform="translate(-81.689167,-71.460243)">
    <ellipse
       ry="2.8178484"
       rx="19.559185"
       cy="135.0872"
       cx="101.24835"
       id="path856"
       style="fill:#999999;fill-rule:evenodd;stroke:none;stroke-width:1.05;stroke-linecap:round;stroke-linejoin:round;stroke-miterlimit:4;stroke-dasharray:none" />
    <path
       id="path850"
       style="fill:#deaa87;stroke:#000000;stroke-width:3.9685;stroke-linecap:butt;stroke-linejoin:miter;stroke-miterlimit:4;stroke-dasharray:none;stroke-opacity:1"
       d="m 370.02148,337.39844 c 0,0 1.39063,3.23027 1.39063,6.46094 0,1.8574 -1.06756,2.71659 -1.97852,3.125 -0.54979,-0.21946 -1.48712,-0.58111 -2.70703,-1 -3.65972,-1.25669 -9.86682,-3.0293 -15.8164,-3.0293 -0.31316,0 -0.61931,0.014 -0.92188,0.0371 -0.4255,-0.0178 -0.85175,-0.0371 -1.27344,-0.0371 -2.58102,0.57999 -3.30523,0.27434 -6.21484,1.7207 -5.02288,2.90766 -7.56445,8.48828 -7.56445,8.48828 -5.42647,15.81648 -12.23037,30.22066 -12.24219,43.95508 0.0145,1.12364 0.0577,2.19906 0.11719,3.24805 0.0229,0.40989 0.0566,0.8006 0.0859,1.19922 0.0441,0.59155 0.0925,1.17665 0.1504,1.74414 0.0505,0.50122 0.10541,0.99208 0.16601,1.47461 0.0501,0.39412 0.10541,0.77808 0.16211,1.16015 0.0827,0.5638 0.16558,1.12647 0.26172,1.66407 0.008,0.0461 0.0189,0.0889 0.0273,0.13476 1.39563,7.68194 4.12072,12.71308 7.04688,15.99609 0.18573,0.21219 0.37343,0.40672 0.56054,0.60547 0.096,0.0998 0.19096,0.21229 0.28711,0.3086 1.47557,1.51061 2.97471,2.61659 4.36133,3.42968 l 4.4375,21.91602 1.28906,-19.76172 c 0.11823,0.0156 0,0 0,0 0,-10e-6 -6.71277,-17.70142 -1.4082,-33.92969 0.2624,-0.80277 5.50108,-18.45415 5.72852,-19.34961 8.06598,20.95461 20.06843,51.86829 36.88281,53.91993 0.13169,0.018 0.2642,0.0307 0.39648,0.0449 0.27131,0.0256 0.54262,0.0521 0.81641,0.0625 0.4718,0.0218 0.94655,0.0247 1.42578,-0.004 6.5e-4,4e-5 0.001,-4e-5 0.002,0 0.47924,0.0286 0.95398,0.0257 1.42579,0.004 0.27379,-0.0104 0.5451,-0.0369 0.8164,-0.0625 0.13229,-0.0142 0.26479,-0.0269 0.39649,-0.0449 16.81439,-2.05163 28.8168,-32.96533 36.88281,-53.91993 0.22741,0.89547 5.46622,18.54684 5.72851,19.34961 5.30457,16.22827 -1.7832,33.98829 -1.7832,33.98829 0,0 -0.11822,0.0156 0,0 L 430.62109,450 l 4.4375,-21.91602 c 1.38662,-0.81309 2.88577,-1.91907 4.36133,-3.42968 l 0.006,-0.006 c 0.27737,-0.27802 0.55314,-0.58464 0.82813,-0.89258 0.004,-0.005 0.009,-0.0105 0.0137,-0.0156 2.92616,-3.283 5.65125,-8.31414 7.04687,-15.99609 0.007,-0.0387 0.0165,-0.0744 0.0234,-0.11328 0.001,-0.007 0.003,-0.0145 0.004,-0.0215 0.0961,-0.5376 0.17904,-1.10027 0.26172,-1.66407 0.0567,-0.38207 0.11199,-0.76603 0.1621,-1.16015 0.0606,-0.48253 0.11554,-0.97339 0.16602,-1.47461 0.0579,-0.56749 0.10627,-1.15259 0.15039,-1.74414 0.0293,-0.39862 0.063,-0.78933 0.0859,-1.19922 0.0595,-1.04899 0.1027,-2.12441 0.11719,-3.24805 -0.007,-8.58401 -2.66714,-17.4302 -5.98633,-26.71875 -1.99152,-5.57313 -4.22094,-11.30515 -6.25586,-17.23633 0,0 -1.67861,-3.68387 -5.00195,-6.625 -0.76693,-0.67872 -1.62072,-1.31809 -2.5625,-1.86328 0,0 -3.0594,-1.24626 -5.25782,-1.55078 -6.2e-4,-9e-5 -0.001,9e-5 -0.002,0 -0.31417,-0.0436 -0.63245,-0.0974 -0.95508,-0.16992 -0.42169,0 -0.84794,0.0193 -1.27344,0.0371 -0.30258,-0.0231 -0.60893,-0.0371 -0.92187,-0.0371 -7.93278,0 -16.32428,3.15148 -18.52344,4.0293 -0.91094,-0.40842 -1.97851,-1.26759 -1.97851,-3.125 0,-2.42301 0.78271,-4.8463 1.17382,-5.90626 0.13037,-0.35331 0.2168,-0.55468 0.2168,-0.55468 l -2.20703,0.0273 c 4.2e-4,-9.9e-4 0.0117,-0.0273 0.0117,-0.0273 l -13.27149,0.16992 -13.27343,-0.16992 c 0,0 0.0113,0.0263 0.0117,0.0273 z"
       transform="scale(0.26458333)"
       sodipodi:nodetypes="cscssccccccccccsccccccccsccccsccccccccccscscsscccccccscscscccscssccccccc" />
    <path
       transform="scale(0.26458333)"
       id="path886"
       style="fill:#d38d5f;stroke:#000000;stroke-width:3.9685;stroke-linecap:butt;stroke-linejoin:miter;stroke-miterlimit:4;stroke-dasharray:none;stroke-opacity:1"
       d="m 360.71484,443.21484 v 56.04493 c -10.05075,1.05731 -15.90757,2.41567 -18.21456,3.95367 -3.21429,2.14285 -2.85742,6.07227 -2.85742,6.07227 l 28.92941,-0.35798 -0.63282,-6.10351 C 373.50273,499.1776 380.21019,491.70797 380,476.78516 379.64283,451.428 360.71484,443.21484 360.71484,443.21484 Z"
       sodipodi:nodetypes="ccscccsc" />
    <circle
       style="fill:#d38d5f;fill-rule:evenodd;stroke:#000000;stroke-width:1.05;stroke-linecap:round;stroke-linejoin:round;stroke-miterlimit:4;stroke-dasharray:none;stroke-opacity:1"
       id="path10"
       cx="101.82969"
       cy="82.319016"
       r="8.8198938" />
    <path
       style="fill:#ffb380;stroke:#784421;stroke-width:1.05;stroke-linecap:butt;stroke-linejoin:miter;stroke-miterlimit:4;stroke-dasharray:none;stroke-opacity:1"
       d="m 99.502231,89.344121 h 4.299479"
       id="path844" />
    <path
       id="path12"
       style="fill:#999999;stroke:#000000;stroke-width:1.05;stroke-linecap:butt;stroke-linejoin:miter;stroke-miterlimit:4;stroke-dasharray:none;stroke-opacity:1"
       d="m 99.705626,71.985243 -0.0719,1.729648 c 0,0 -2.738728,0.288408 -4.396473,1.87402 -1.657745,1.585604 -3.387521,6.486597 -3.387521,6.486597 0,0 1.585517,2.234113 3.675714,3.675572 2.090202,1.441464 3.02742,1.153283 3.02742,1.153283 l 1.00895,5.982143 1.801634,-5.982143 h 1.15332 l 1.80163,5.982143 1.00951,-5.982143 c 0,0 0.93666,0.288181 3.02687,-1.153283 2.09019,-1.441459 3.67571,-3.675572 3.67571,-3.675572 0,0 -1.72977,-4.900993 -3.38753,-6.486597 -1.65774,-1.585612 -4.39647,-1.87402 -4.39647,-1.87402 l -0.072,-1.729648 h -2.23419 z" />
    <path
       style="fill:#deaa87;stroke:#000000;stroke-width:1.05;stroke-linecap:butt;stroke-linejoin:miter;stroke-miterlimit:4;stroke-dasharray:none;stroke-opacity:1"
       d="m 96.06991,78.714561 3.574094,1.581579 0.317697,3.953941 c 0,0 -1.826757,-0.711709 -3.097546,-2.214206 -1.270788,-1.5025 -0.794245,-3.321314 -0.794245,-3.321314 z"
       id="path17" />
    <path
       id="path19"
       d="m 107.69456,78.715124 -3.66139,1.619306 -0.32544,4.04826 c 0,0 1.87136,-0.728687 3.17318,-2.267025 1.30182,-1.538341 0.81365,-3.400541 0.81365,-3.400541 z"
       style="fill:#deaa87;stroke:#000000;stroke-width:1.05;stroke-linecap:butt;stroke-linejoin:miter;stroke-miterlimit:4;stroke-dasharray:none;stroke-opacity:1" />
    <path
       style="fill:none;stroke:#000000;stroke-width:1.05;stroke-linecap:butt;stroke-linejoin:miter;stroke-miterlimit:4;stroke-dasharray:none;stroke-opacity:1"
       d="m 99.758349,96.885203 c 0,0 1.403171,3.340877 -0.267269,3.875407 -1.670433,0.53454 -4.744034,-0.20045 -4.744034,-0.20045"
       id="path861" />
    <path
       id="path861-5"
       d="m 104.08748,96.804537 c 0,0 -1.40317,3.340883 0.26727,3.875413 1.67044,0.53454 4.74404,-0.20045 4.74404,-0.20045"
       style="fill:none;stroke:#000000;stroke-width:1.05;stroke-linecap:butt;stroke-linejoin:miter;stroke-miterlimit:4;stroke-dasharray:none;stroke-opacity:1" />
    <path
       style="fill:none;stroke:#000000;stroke-width:1.05;stroke-linecap:round;stroke-linejoin:miter;stroke-miterlimit:4;stroke-dasharray:none;stroke-opacity:1"
       d="m 101.96332,103.16604 -0.13364,9.02035"
       id="path878" />
    <path
       style="fill:none;stroke:#000000;stroke-width:1.05;stroke-linecap:round;stroke-linejoin:miter;stroke-miterlimit:4;stroke-dasharray:none;stroke-opacity:1"
       d="m 98.154732,105.90555 8.018078,0.13364"
       id="path880" />
    <path
       style="fill:none;stroke:#000000;stroke-width:1.05;stroke-linecap:round;stroke-linejoin:miter;stroke-miterlimit:4;stroke-dasharray:none;stroke-opacity:1"
       d="m 98.205336,108.87991 7.283094,-0.0668"
       id="path882" />
    <path
       d="m 108.18009,117.36175 v 14.82855 c 2.65926,0.27975 3.54742,0.45016 4.15781,0.85709 0.85044,0.56696 0.75602,1.60662 0.75602,1.60662 l -6.99278,0.0943 0.16744,-1.61488 c -1.47195,-0.96484 -3.24664,-2.94118 -3.19102,-6.8895 0.0945,-6.70909 5.10253,-8.88215 5.10253,-8.88215 z"
       style="fill:#d38d5f;stroke:#000000;stroke-width:1.05;stroke-linecap:butt;stroke-linejoin:miter;stroke-miterlimit:4;stroke-dasharray:none;stroke-opacity:1"
       id="path893"
       sodipodi:nodetypes="ccscccsc" />
    <path
       style="fill:#800000;stroke:#000000;stroke-width:1.05;stroke-linecap:butt;stroke-linejoin:miter;stroke-miterlimit:4;stroke-dasharray:none;stroke-opacity:1"
       d="m 95.853786,110.17995 c 0,0 -2.091044,3.63469 -3.16474,6.24872 -0.875753,2.13211 -1.407784,5.65762 -1.407784,5.65762 h 21.084418 c 0,0 -0.67019,-3.27945 -1.91124,-5.88596 -1.3502,-2.83579 -3,-5.93594 -3,-5.93594 z"
       id="path884"
       sodipodi:nodetypes="csccscc" />
    <path
       style="fill:none;stroke:#d40000;stroke-width:1.05;stroke-linecap:butt;stroke-linejoin:miter;stroke-miterlimit:4;stroke-dasharray:none;stroke-opacity:1"
       d="m 113.82881,78.300395 c 0,0 1.5657,-0.640362 2.56442,0.118671 0.99873,0.759033 0.94386,2.293645 0.94386,2.293645"
       id="path901"
       sodipodi:nodetypes="csc" />
    <path
       sodipodi:nodetypes="csc"
       id="path901-1"
       d="m 121.37442,75.530983 c 0,0 -1.5875,0.584199 -2.55856,-0.209916 -0.97107,-0.794117 -0.86157,-2.325802 -0.86157,-2.325802"
       style="fill:none;stroke:#d40000;stroke-width:1.05;stroke-linecap:butt;stroke-linejoin:miter;stroke-miterlimit:4;stroke-dasharray:none;stroke-opacity:1" />
    <path
       sodipodi:nodetypes="csc"
       id="path901-3"
       d="m 119.08848,80.627967 c 0,0 -0.47391,-1.623847 0.38495,-2.538138 0.85887,-0.914299 2.37943,-0.699986 2.37943,-0.699986"
       style="fill:none;stroke:#d40000;stroke-width:1.05;stroke-linecap:butt;stroke-linejoin:miter;stroke-miterlimit:4;stroke-dasharray:none;stroke-opacity:1" />
    <path
       style="fill:none;stroke:#d40000;stroke-width:1.05;stroke-linecap:butt;stroke-linejoin:miter;stroke-miterlimit:4;stroke-dasharray:none;stroke-opacity:1"
       d="m 116.46424,73.247223 c 0,0 0.41578,1.639696 -0.4751,2.52282 -0.89087,0.883139 -2.40284,0.614807 -2.40284,0.614807"
       id="path901-1-3"
       sodipodi:nodetypes="csc" />
  </g>
</svg>
